<?xml version="1.0" encoding="UTF-8"?>
<!DOCTYPE svg PUBLIC "-//W3C//DTD SVG 1.1//EN" "http://www.w3.org/Graphics/SVG/1.1/DTD/svg11.dtd">
<!-- Creator: CorelDRAW 2020 (64 Bit) -->
<svg xmlns="http://www.w3.org/2000/svg" xml:space="preserve" width="235mm" height="235mm" version="1.1" style="shape-rendering:geometricPrecision; text-rendering:geometricPrecision; image-rendering:optimizeQuality; fill-rule:evenodd; clip-rule:evenodd"
viewBox="0 0 23500 23500"
 xmlns:xlink="http://www.w3.org/1999/xlink"
 xmlns:xodm="http://www.corel.com/coreldraw/odm/2003">
 <defs>
  <style type="text/css">
   <![CDATA[
    .fil0 {fill:black}
   ]]>
  </style>
 </defs>
 <g id="Camada_x0020_1">
  <metadata id="CorelCorpID_0Corel-Layer"/>
  <path class="fil0" d="M11746.39 130.5c6503.54,0 11623.46,5238.66 11623.46,11620.03 0,6419.46 -5205.03,11622.43 -11623.46,11622.43 -6418.09,0 -11619.69,-5203.31 -11619.69,-11622.43 -0.34,-6418.78 5201.59,-11620.03 11619.69,-11620.03zm-26.08 14056.8l-3250.4 -10785.47 -4209.52 13808.69 789.95 0c0,0 531.55,-2402.11 1393.91,-3836.51 470.13,-778.28 1194.19,-1415.53 2162.93,-1397 682.89,12.35 1273.46,386.05 2010.91,1415.87 443.7,620.09 1126.59,2195.53 1126.59,2195.53 0,0 683.57,-1573.72 1128.99,-2195.53 735.39,-1029.82 1325.62,-1403.86 2009.88,-1415.87 967.02,-18.53 1693.14,619.06 2161.55,1398.37 863.39,1433.37 1393.91,3835.48 1393.91,3835.48l790.98 0.01 -4210.55 -13808.69 -3251.43 10785.47 -22.31 19.56 -25.39 -19.9 0 -0.01z"/>
 </g>
</svg>
