<?xml version="1.0" encoding="UTF-8"?>
<!DOCTYPE svg PUBLIC "-//W3C//DTD SVG 1.1//EN" "http://www.w3.org/Graphics/SVG/1.1/DTD/svg11.dtd">
<!-- Creator: CorelDRAW 2020 (64 Bit) -->
<svg xmlns="http://www.w3.org/2000/svg" xml:space="preserve" width="470mm" height="320mm" version="1.1" style="shape-rendering:geometricPrecision; text-rendering:geometricPrecision; image-rendering:optimizeQuality; fill-rule:evenodd; clip-rule:evenodd"
viewBox="0 0 47000 32000"
 xmlns:xlink="http://www.w3.org/1999/xlink"
 xmlns:xodm="http://www.corel.com/coreldraw/odm/2003">
 <defs>
  <style type="text/css">
   <![CDATA[
    .fil0 {fill:#FEFEFE}
   ]]>
  </style>
 </defs>
 <g id="Camada_x0020_1">
  <metadata id="CorelCorpID_0Corel-Layer"/>
  <path class="fil0" d="M323.38 31413.51l1133.11 -3854.7 1950.51 0 492.78 1647.85 1416.21 -1654.71 2070.62 0 -1077.52 3857.44 -1565.49 5.83 572.39 -1989.98 -1816.34 1989.98 -769.7 0.01 -560.38 -2129.64 -630.38 2129.64 -1215.81 -1.72zm13782.62 -3862.93l4807.31 8.24 -288.94 1245.32 -1649.57 0 -678.77 2609.38 -1521.56 1.72 632.78 -2600.8 -1624.85 -0.01 323.6 -1263.85zm12893.49 7.2l0 895.99 2.74 0 -187.71 745.68 1648.88 0c0,0 400.12,-68.97 422.08,-435.47 19.56,-322.23 -280.7,-299.58 -280.7,-299.58l-1605.29 -6.18 0 -899.76 2483.78 -1.03c0,0 1062.42,80.64 957.76,999.96 -105.35,918.98 -1083.01,1212.38 -1083.01,1212.38 0,0 -59.02,58.34 -12.7,93 46.33,33.97 410.76,102.26 457.09,446.79 46.33,344.19 -120.11,594.69 -120.11,698.67 0,103.29 10.64,309.19 140.69,400.47l-1568.23 0.01c0,0 -280.02,-42.55 -255.31,-331.49 22.65,-285.51 35.69,-537.39 35.69,-537.39 0,0 -22.65,-299.58 -443.7,-263.89l-1146.84 -11.67 -327.72 1148.55 -1438.17 0.01 1095.02 -3855.38 1225.76 -0.01 0 0.34zm10896.65 0l1472.49 0 -713.08 2796.4 2423.72 0 -282.42 1062.08 -3906.51 0 1005.8 -3858.47 0 -0.01zm7890.24 -2.74l883.29 3860.19 -1531.52 0 -163 -669.16 -5.15 -13.38 -1856.14 0 -6.52 6.18 -448.51 674.65 -1296.11 1.72 2620.01 -3860.19 506.5 1138.26 -759.41 1123.84 22.31 8.92 984.53 -0.01 17.5 -2.06 -264.92 -1130.71 -506.5 -1138.26 1803.64 0.01zm-34967.5 857.55c467.04,0 927.56,230.95 999.62,566.9 222.02,1073.06 -922.07,1532.89 -787.55,1465.29 -658.52,326 -1658.48,220.99 -1775.84,-455.03 -111.87,-650.63 390.51,-1290.96 812.94,-1443.32 288.6,-104.66 528.12,-148.59 750.83,-133.83l3.43 -9.61 5.49 -1000.31c-301.98,5.83 -642.74,43.24 -912.11,95.4 -1153.01,221.34 -2607.32,1270.03 -2350.98,2596.68 215.5,1121.1 1736.72,1724.03 3442.56,1393.91 1598.77,-306.78 2646.44,-1538.72 2420.98,-2631.34 -216.19,-1057.27 -1467.69,-1454.99 -2600.11,-1454.99l0 865.1 -9.27 145.16 0.01 -0.01zm11181.13 0c466.7,0 928.59,230.95 997.22,566.9 225.46,1073.06 -919.32,1532.89 -783.43,1465.29 -659.21,326 -1660.54,220.99 -1777.22,-455.03 -112.56,-650.63 389.83,-1290.96 813.29,-1443.32 288.25,-104.66 528.81,-148.59 750.14,-133.83l3.77 -9.61 6.18 -1000.31c-301.29,5.83 -643.42,43.24 -913.83,95.4 -1152.33,221.34 -2609.38,1270.03 -2352.35,2596.68 215.16,1121.1 1740.16,1724.03 3443.25,1393.91 1600.15,-306.78 2648.5,-1538.72 2423.38,-2631.34 -217.22,-1057.27 -1469.06,-1454.99 -2600.8,-1454.99l0 865.1 -9.61 145.16 0.01 -0.01zm12156.39 -9.95c466.35,25.74 923.44,240.55 993.79,576.85 223.74,1073.06 -921.72,1532.89 -783.43,1465.29 -660.24,326 -1660.2,220.99 -1778.25,-455.03 -111.87,-650.63 388.8,-1290.96 812.94,-1443.32 347.96,-125.94 484.2,-161.97 754.95,-143.78l5.49 -1000.31c-300.95,5.83 -639.99,43.24 -913.49,95.4 -1150.95,221.34 -2605.26,1270.03 -2351.32,2596.68 215.85,1121.1 1739.13,1724.03 3442.91,1393.91 1599.8,-306.78 2648.15,-1538.72 2420.98,-2631.34 -215.85,-1057.27 -1467.69,-1454.99 -2599.08,-1454.99l0 865.1 -5.49 135.55 0 -0.01zm-10642.72 -27977.36c6503.54,0 11623.46,5238.66 11623.46,11620.03 0,6419.46 -5205.03,11622.43 -11623.46,11622.43 -6418.09,0 -11619.69,-5203.31 -11619.69,-11622.43 -0.34,-6418.78 5201.59,-11620.03 11619.69,-11620.03zm-26.08 14056.8l-3250.4 -10785.47 -4209.52 13808.69 789.95 0c0,0 531.55,-2402.11 1393.91,-3836.51 470.13,-778.28 1194.19,-1415.53 2162.93,-1397 682.89,12.35 1273.46,386.05 2010.91,1415.87 443.7,620.09 1126.59,2195.53 1126.59,2195.53 0,0 683.57,-1573.72 1128.99,-2195.53 735.39,-1029.82 1325.62,-1403.86 2009.88,-1415.87 967.02,-18.53 1693.14,619.06 2161.55,1398.37 863.39,1433.37 1393.91,3835.48 1393.91,3835.48l790.98 0.01 -4210.55 -13808.69 -3251.43 10785.47 -22.31 19.56 -25.39 -19.9 0 -0.01z"/>
 </g>
</svg>
